<svg xmlns="http://www.w3.org/2000/svg" xmlns:xlink="http://www.w3.org/1999/xlink" width="500" zoomAndPan="magnify" viewBox="0 0 375 374.999991" height="500" preserveAspectRatio="xMidYMid meet" version="1.0"><defs><clipPath id="35a151ab56"><path d="M 43.558594 243.472656 L 184 243.472656 L 184 367.710938 L 43.558594 367.710938 Z M 43.558594 243.472656 " clip-rule="nonzero"/></clipPath><clipPath id="937f9812cf"><path d="M 42.898438 238.828125 L 188.792969 238.828125 L 188.792969 367.710938 L 42.898438 367.710938 Z M 42.898438 238.828125 " clip-rule="nonzero"/></clipPath><clipPath id="cddc74bf14"><path d="M 259 177 L 331.460938 177 L 331.460938 216 L 259 216 Z M 259 177 " clip-rule="nonzero"/></clipPath><clipPath id="7db99304f5"><path d="M 255.105469 172.84375 L 331.460938 172.84375 L 331.460938 220 L 255.105469 220 Z M 255.105469 172.84375 " clip-rule="nonzero"/></clipPath><clipPath id="185de7a65a"><path d="M 43.558594 250.714844 L 183.835938 250.714844 L 183.835938 374.992188 L 43.558594 374.992188 Z M 43.558594 250.714844 " clip-rule="nonzero"/></clipPath><clipPath id="5b4377f187"><path d="M 42.898438 246.070312 L 188.46875 246.070312 L 188.46875 374.992188 L 42.898438 374.992188 Z M 42.898438 246.070312 " clip-rule="nonzero"/></clipPath><clipPath id="1931faae9f"><path d="M 158 7.167969 L 253 7.167969 L 253 230 L 158 230 Z M 158 7.167969 " clip-rule="nonzero"/></clipPath><clipPath id="f65a42f7bd"><path d="M 153 7.167969 L 257 7.167969 L 257 235 L 153 235 Z M 153 7.167969 " clip-rule="nonzero"/></clipPath><clipPath id="5f00f7fa76"><path d="M 254.636719 180.066406 L 330.835938 180.066406 L 330.835938 227.496094 L 254.636719 227.496094 Z M 254.636719 180.066406 " clip-rule="nonzero"/></clipPath></defs><path fill="#ff5757" d="M 114.964844 71.5 C 123.847656 77.003906 127.09375 88.675781 126.117188 99.078125 C 125.136719 109.480469 120.792969 119.214844 117.703125 129.195312 C 114.613281 139.179688 112.816406 150.25 116.855469 159.886719 C 120.269531 168.03125 127.632812 174.597656 128.707031 183.363281 C 129.6875 191.355469 125.117188 199.214844 125.910156 207.222656 C 126.867188 216.871094 135.375 224.140625 144.285156 227.96875 C 153.195312 231.796875 163 233.277344 171.796875 237.359375 C 180.589844 241.445312 188.738281 249.308594 188.859375 259.007812 C 184.488281 248.070312 173.078125 241.597656 161.792969 238.210938 C 150.515625 234.828125 138.550781 233.640625 127.738281 228.976562 C 116.925781 224.308594 106.96875 214.820312 106.59375 203.046875 C 106.386719 196.566406 109.09375 190.125 108.09375 183.714844 C 106.492188 173.441406 96.222656 166.949219 91.507812 157.683594 C 86.351562 147.539062 88.410156 135.246094 92.082031 124.472656 C 95.757812 113.703125 100.964844 103.230469 101.886719 91.886719 C 103.46875 72.402344 90.5 52.664062 71.988281 46.378906 C 112.128906 39.027344 155.601562 53.554688 183.257812 83.558594 C 204.101562 106.167969 215.707031 136.121094 220.539062 166.492188 C 223.488281 185.027344 224.070312 203.796875 223.484375 222.578125 C 222.902344 218.054688 217.359375 194.4375 215.167969 187.152344 C 208.550781 165.136719 201.78125 142.785156 189.25 123.515625 C 172.359375 97.539062 145.148438 78.488281 114.964844 71.5 " fill-opacity="1" fill-rule="nonzero"/><path stroke-linecap="butt" transform="matrix(0.0331579, 0, 0, -0.0331579, 42.896651, 367.710621)" fill="none" stroke-linejoin="miter" d="M 2173.486803 8933.342915 C 2441.381349 8767.351967 2539.279488 8415.342774 2509.827581 8101.62106 C 2480.257867 7787.899346 2349.255784 7494.322736 2256.06995 7193.324246 C 2162.884116 6892.207949 2108.692607 6558.34113 2230.505695 6267.709712 C 2333.469562 6022.080807 2555.536941 5824.046184 2587.934039 5559.685866 C 2617.503753 5318.651459 2479.668828 5081.622511 2503.583777 4840.116873 C 2532.446646 4549.132031 2789.03166 4329.892035 3057.75086 4214.44056 C 3326.47006 4098.989084 3622.167207 4054.339993 3887.469985 3931.231022 C 4152.654957 3808.004242 4398.401669 3570.857487 4402.053705 3278.341146 C 4270.226969 3608.202505 3926.110887 3803.409745 3585.76465 3905.548959 C 3245.654027 4007.570365 2884.809262 4043.383884 2558.717747 4184.046192 C 2232.626232 4324.826307 1932.334588 4610.981036 1921.025056 4966.053228 C 1914.781251 5161.496083 1996.421938 5355.760862 1966.263185 5549.08318 C 1917.962057 5858.917242 1608.245803 6054.71352 1466.051995 6334.153214 C 1310.545926 6640.099624 1372.630546 7010.84023 1483.369717 7335.753669 C 1594.226695 7660.5493 1751.264263 7976.391551 1779.066864 8318.504903 C 1826.778953 8906.129353 1435.657627 9501.411298 877.367277 9690.963772 C 2087.958465 9912.677728 3399.039559 9474.551159 4233.117567 8569.670767 C 4861.739071 7887.800215 5211.745534 6984.451322 5357.47357 6068.497012 C 5446.418329 5509.499817 5463.971666 4943.434163 5446.300522 4377.015087 C 5428.747185 4513.43632 5261.578161 5225.70124 5195.488081 5445.412467 C 4995.921959 6109.376259 4791.76134 6783.471508 4413.834468 7364.616538 C 3904.434284 8148.037265 3083.786346 8722.585068 2173.486803 8933.342915 Z M 2173.486803 8933.342915 " stroke="#ffffff" stroke-width="10" stroke-opacity="1" stroke-miterlimit="10"/><g clip-path="url(#35a151ab56)"><path fill="#ff5757" d="M 66.03125 322.433594 C 67.898438 305.109375 67.652344 286.792969 76.09375 271.550781 C 85.886719 253.867188 106.492188 243.65625 126.707031 243.578125 C 146.917969 243.5 166.445312 252.542969 181.777344 265.714844 L 183.976562 268.195312 C 176.074219 261.238281 166.527344 256.144531 156.308594 253.605469 C 140.820312 249.75 123.941406 251.792969 109.816406 259.222656 C 101.839844 263.421875 94.566406 269.5 90.570312 277.578125 C 84.957031 288.925781 86.492188 302.296875 87.0625 314.945312 C 87.628906 327.589844 86.496094 341.683594 77.335938 350.417969 C 103.101562 352.46875 129.570312 341.550781 146.40625 321.9375 C 158.855469 307.4375 165.847656 289.160156 172.605469 271.285156 C 172.339844 300.703125 156.628906 329.550781 132.058594 345.734375 C 106.402344 362.632812 74.238281 365.308594 43.59375 367.496094 C 58.640625 358.707031 64.164062 339.761719 66.03125 322.433594 " fill-opacity="1" fill-rule="nonzero"/></g><g clip-path="url(#937f9812cf)"><path stroke-linecap="butt" transform="matrix(0.0331579, 0, 0, -0.0331579, 42.896651, 367.710621)" fill="none" stroke-linejoin="miter" d="M 697.710569 1365.498539 C 754.022609 1887.975313 746.600729 2440.375222 1001.182986 2900.060537 C 1296.526678 3433.375612 1917.961849 3741.324719 2527.616259 3743.680871 C 3137.152861 3746.037023 3726.07313 3473.312394 4188.468021 3076.065114 L 4254.793708 3001.257279 C 4016.468902 3211.072642 3728.54709 3364.693772 3420.362368 3441.268722 C 2953.255173 3557.544839 2444.208467 3495.931456 2018.21613 3271.861371 C 1777.652979 3145.218185 1558.295199 2961.909535 1437.778009 2718.283386 C 1268.488465 2376.052264 1314.786858 1972.796796 1331.98677 1591.335737 C 1349.068874 1209.992486 1314.904666 784.94261 1038.645808 521.524782 C 1815.704839 459.675784 2613.969241 788.948069 3121.720063 1380.460106 C 3497.172934 1817.761974 3708.048565 2368.983807 3911.85574 2908.071455 C 3903.844822 2020.862303 3430.022593 1150.853063 2689.012692 662.776113 C 1915.252274 153.140368 945.224369 72.442152 21.023626 6.469887 C 474.81856 271.537022 641.398528 842.903957 697.710569 1365.498539 Z M 697.710569 1365.498539 " stroke="#ffffff" stroke-width="10" stroke-opacity="1" stroke-miterlimit="10"/></g><path fill="#ff5757" d="M 234.855469 118.101562 C 229.8125 79.6875 212.527344 59.164062 187.683594 40.652344 C 193.394531 48.945312 192.015625 60.382812 187.371094 69.378906 C 186.996094 68.960938 186.625 68.539062 186.246094 68.128906 C 180.847656 62.269531 174.84375 57.007812 168.386719 52.378906 C 176.519531 35.363281 172.359375 13.152344 158.398438 0.402344 C 198.117188 9.773438 232.105469 40.519531 245.402344 79.097656 C 255.421875 108.171875 254.035156 140.265625 246.277344 170.023438 C 241.542969 188.183594 234.542969 205.609375 226.472656 222.578125 C 227.753906 218.199219 232.152344 194.34375 233.070312 186.792969 C 235.839844 163.972656 237.851562 140.894531 234.855469 118.101562 " fill-opacity="1" fill-rule="nonzero"/><path stroke-linecap="butt" transform="matrix(0.0331579, 0, 0, -0.0331579, 42.896651, 367.710621)" fill="none" stroke-linejoin="miter" d="M 5789.238527 7527.89791 C 5637.148879 8686.418126 5115.850125 9305.379405 4366.593609 9863.669755 C 4538.828362 9613.56416 4497.242269 9268.623425 4357.168999 8997.312457 C 4345.859467 9009.917873 4334.667742 9022.641097 4323.240402 9035.010898 C 4160.43026 9211.72234 3979.359935 9370.409216 3784.623926 9510.011255 C 4029.899408 10023.181283 3904.434284 10693.035457 3483.389821 11077.559556 C 4681.257784 10794.939056 5706.301957 9867.675214 6107.319124 8704.207078 C 6409.49569 7827.364901 6367.673982 6859.457428 6133.708032 5961.998916 C 5990.925187 5414.311253 5779.813917 4888.771424 5536.423357 4377.015087 C 5575.064259 4509.077438 5707.715649 5228.528623 5735.400441 5456.250769 C 5818.92605 6144.482933 5879.596978 6840.4904 5789.238527 7527.89791 Z M 5789.238527 7527.89791 " stroke="#ffffff" stroke-width="10" stroke-opacity="1" stroke-miterlimit="10"/><path fill="#ff5757" d="M 254.355469 201.070312 C 254.355469 201.070312 254.382812 201.199219 254.441406 201.457031 C 254.496094 201.710938 254.578125 202.09375 254.660156 202.589844 C 254.824219 203.589844 255.039062 205.0625 255.15625 206.949219 C 255.296875 208.835938 255.347656 211.132812 255.242188 213.769531 C 255.164062 216.414062 254.847656 219.375 254.363281 222.609375 C 254.09375 224.214844 253.808594 225.898438 253.402344 227.613281 C 253.039062 229.34375 252.546875 231.101562 252.035156 232.914062 C 250.949219 236.511719 249.632812 240.28125 247.902344 244.03125 C 247.089844 245.933594 246.097656 247.785156 245.125 249.679688 C 244.640625 250.632812 244.0625 251.535156 243.53125 252.472656 C 242.976562 253.398438 242.453125 254.351562 241.84375 255.253906 C 241.242188 256.15625 240.632812 257.066406 240.023438 257.980469 C 239.429688 258.902344 238.761719 259.777344 238.09375 260.65625 C 237.425781 261.535156 236.757812 262.414062 236.085938 263.292969 L 233.9375 265.820312 C 231.058594 269.191406 227.871094 272.277344 224.605469 275.144531 C 222.972656 276.578125 221.246094 277.871094 219.582031 279.1875 C 217.871094 280.449219 216.125 281.609375 214.425781 282.765625 C 213.582031 283.351562 212.675781 283.832031 211.816406 284.359375 C 210.949219 284.875 210.085938 285.375 209.230469 285.867188 C 208.386719 286.378906 207.515625 286.8125 206.648438 287.234375 C 205.789062 287.660156 204.9375 288.082031 204.097656 288.496094 C 203.246094 288.890625 202.441406 289.335938 201.59375 289.667969 C 200.753906 290.011719 199.925781 290.351562 199.113281 290.683594 C 198.300781 291.007812 197.5 291.328125 196.714844 291.640625 C 196.324219 291.792969 195.933594 291.941406 195.546875 292.089844 C 195.152344 292.21875 194.761719 292.34375 194.375 292.472656 C 192.824219 292.960938 191.355469 293.445312 189.945312 293.863281 C 188.542969 294.304688 187.171875 294.609375 185.894531 294.902344 C 183.332031 295.476562 181.128906 295.984375 179.242188 296.191406 C 175.519531 296.710938 173.378906 296.839844 173.378906 296.839844 C 173.378906 296.839844 175.164062 295.578125 178.308594 293.65625 C 179.894531 292.734375 181.742188 291.460938 183.878906 290.113281 C 186.042969 288.816406 188.359375 287.160156 190.917969 285.492188 C 191.238281 285.28125 191.558594 285.070312 191.882812 284.855469 C 192.203125 284.628906 192.519531 284.398438 192.84375 284.167969 C 193.488281 283.707031 194.144531 283.238281 194.8125 282.761719 C 195.484375 282.292969 196.164062 281.820312 196.851562 281.335938 C 197.546875 280.867188 198.207031 280.316406 198.898438 279.800781 C 199.585938 279.285156 200.28125 278.761719 200.988281 278.226562 C 201.695312 277.699219 202.417969 277.183594 203.101562 276.59375 C 204.484375 275.441406 205.941406 274.335938 207.359375 273.136719 C 208.742188 271.898438 210.195312 270.703125 211.605469 269.4375 C 212.296875 268.785156 212.992188 268.132812 213.691406 267.476562 C 214.042969 267.15625 214.398438 266.832031 214.753906 266.503906 L 215.285156 266.015625 L 215.789062 265.5 C 218.523438 262.78125 221.257812 259.988281 223.785156 257.015625 L 225.703125 254.808594 C 226.3125 254.046875 226.917969 253.285156 227.523438 252.527344 C 228.777344 251.035156 229.882812 249.445312 231.058594 247.917969 C 231.652344 247.160156 232.15625 246.34375 232.714844 245.570312 C 233.253906 244.78125 233.839844 244.027344 234.335938 243.222656 C 235.363281 241.632812 236.425781 240.085938 237.359375 238.492188 C 239.332031 235.363281 241.042969 232.203125 242.664062 229.175781 C 244.25 226.136719 245.660156 223.1875 246.925781 220.421875 C 248.15625 217.648438 249.277344 215.0625 250.183594 212.722656 C 250.675781 211.5625 251.042969 210.449219 251.460938 209.429688 C 251.835938 208.398438 252.183594 207.449219 252.496094 206.59375 C 253.113281 204.867188 253.570312 203.484375 253.886719 202.535156 C 254.199219 201.585938 254.355469 201.070312 254.355469 201.070312 " fill-opacity="1" fill-rule="nonzero"/><path stroke-linecap="butt" transform="matrix(0.0331579, 0, 0, -0.0331579, 42.896651, 367.710621)" fill="none" stroke-linejoin="miter" d="M 6377.334207 5025.663887 C 6377.334207 5025.663887 6378.158861 5021.776236 6379.925975 5014.000932 C 6381.575282 5006.343436 6384.049242 4994.798289 6386.523202 4979.83672 C 6391.471123 4949.677967 6397.950542 4905.264491 6401.484771 4848.363407 C 6405.725846 4791.462323 6407.257345 4722.191437 6404.076539 4642.671288 C 6401.720387 4562.915524 6392.177969 4473.617342 6377.569823 4376.072626 C 6369.441096 4327.65369 6360.84114 4276.878603 6348.589146 4225.161054 C 6337.633037 4172.972275 6322.789276 4119.958842 6307.356476 4065.296102 C 6274.605956 3956.795277 6234.904785 3843.110916 6182.716006 3730.015593 C 6158.212019 3672.643278 6128.288881 3616.802462 6098.954782 3559.665762 C 6084.346636 3530.920701 6066.911107 3503.707139 6050.88927 3475.433308 C 6034.160587 3447.5129 6018.374364 3418.767839 5999.996374 3391.554277 C 5981.854 3364.340715 5963.47601 3336.891537 5945.09802 3309.324552 C 5927.19126 3281.521952 5907.046156 3255.133043 5886.901051 3228.626327 C 5866.755947 3202.119611 5846.610842 3175.612894 5826.34793 3149.106178 L 5761.553735 3072.884642 C 5674.729513 2971.216659 5578.598488 2878.148633 5480.111311 2791.677834 C 5430.867723 2748.560242 5378.796751 2709.448109 5328.610701 2669.746939 C 5277.01096 2631.695075 5224.35095 2596.706209 5173.104632 2561.835151 C 5147.658184 2544.164007 5120.326815 2529.673669 5094.409136 2513.769639 C 5068.255843 2498.219032 5042.220357 2483.139656 5016.420486 2468.295895 C 4990.974039 2452.863095 4964.702938 2439.786448 4938.549644 2427.063225 C 4912.631966 2414.222193 4886.949903 2401.498969 4861.621263 2389.011361 C 4835.9392 2377.11279 4811.670829 2363.682721 4786.106573 2353.669072 C 4760.777933 2343.302001 4735.802716 2333.052737 4711.298729 2323.039089 C 4686.794743 2313.261056 4662.644179 2303.60083 4638.964846 2294.17622 C 4627.184083 2289.581723 4615.40332 2285.105033 4603.740365 2280.628343 C 4591.841794 2276.740691 4580.061032 2272.970847 4568.398076 2269.083195 C 4521.628448 2254.357242 4477.33278 2239.749096 4434.804226 2227.14368 C 4392.511288 2213.831418 4351.16081 2204.642423 4312.637716 2195.80685 C 4235.355912 2178.489129 4168.912409 2163.174137 4112.129132 2156.930333 C 3999.740655 2141.261919 3935.182075 2137.374267 3935.182075 2137.374267 C 3935.182075 2137.374267 3989.020161 2175.426131 4083.855302 2233.387484 C 4131.685199 2261.190084 4187.408207 2299.595371 4251.848979 2340.239003 C 4317.114405 2379.351135 4386.974329 2429.30157 4464.138325 2479.605427 C 4473.798551 2485.967039 4483.458777 2492.328651 4493.23681 2498.80807 C 4502.897035 2505.640913 4512.439453 2512.591563 4522.217486 2519.542213 C 4541.655745 2533.443513 4561.447426 2547.580428 4581.592531 2561.952959 C 4601.855443 2576.089874 4622.35397 2590.344597 4643.088113 2604.952743 C 4664.057871 2619.089659 4683.96736 2635.700534 4704.81931 2651.251141 C 4725.553452 2666.801748 4746.52321 2682.58797 4767.846391 2698.727615 C 4789.169572 2714.631645 4810.963983 2730.182252 4831.580318 2747.971204 C 4873.284218 2782.724454 4917.226464 2816.064013 4959.990633 2852.230955 C 5001.694533 2889.575973 5045.518971 2925.625107 5088.047524 2963.794779 C 5108.899475 2983.468653 5129.869232 3003.142527 5150.956798 3022.934208 C 5161.559484 3032.594434 5172.279979 3042.372467 5183.000473 3052.268307 L 5199.02231 3066.994261 L 5214.219494 3082.544868 C 5296.684834 3164.538977 5379.150174 3248.771431 5455.371709 3338.423036 L 5513.215255 3404.984346 C 5531.593245 3427.956834 5549.853427 3450.929321 5568.113609 3473.784001 C 5605.929858 3518.786515 5639.269417 3566.73422 5674.729513 3612.797002 C 5692.636272 3635.651682 5707.833456 3660.273477 5724.679947 3683.599387 C 5740.9374 3707.396528 5758.608544 3730.1334 5773.570113 3754.401772 C 5804.553519 3802.349476 5836.597194 3849.001297 5864.753217 3897.066809 C 5924.246069 3991.43072 5975.845811 4086.737091 6024.735976 4178.038003 C 6072.565873 4269.692337 6115.094427 4358.637097 6153.264099 4442.044897 C 6190.373502 4525.688313 6224.184291 4603.676963 6251.515661 4674.243733 C 6266.359422 4709.232598 6277.433339 4742.807772 6290.038755 4773.555563 C 6301.348287 4804.656777 6311.833166 4833.284031 6321.257776 4859.083901 C 6339.871382 4911.154873 6353.654874 4952.858773 6363.197292 4981.486027 C 6372.621902 5010.113281 6377.334207 5025.663887 6377.334207 5025.663887 Z M 6377.334207 5025.663887 " stroke="#ffffff" stroke-width="10" stroke-opacity="1" stroke-miterlimit="10"/><g clip-path="url(#cddc74bf14)"><path fill="#ff5757" d="M 259.910156 215.253906 C 259.910156 215.253906 270.910156 169.582031 328.851562 178.84375 C 331.25 179.226562 332.089844 181.242188 330.480469 182.710938 C 329.515625 183.589844 327.925781 184.003906 326.507812 183.746094 C 316.511719 181.910156 276.746094 177.261719 259.910156 215.253906 " fill-opacity="1" fill-rule="nonzero"/></g><g clip-path="url(#7db99304f5)"><path stroke-linecap="butt" transform="matrix(0.0331579, 0, 0, -0.0331579, 42.896651, 367.710621)" fill="none" stroke-linejoin="miter" d="M 6544.855944 4597.90389 C 6544.855944 4597.90389 6876.602189 5975.31053 8624.160356 5695.988674 C 8696.376424 5684.443527 8721.705062 5623.654798 8673.168324 5579.359134 C 8644.069843 5552.852421 8596.122144 5540.364814 8553.357979 5548.140116 C 8251.888291 5603.509695 7052.606767 5743.700758 6544.855944 4597.90389 Z M 6544.855944 4597.90389 " stroke="#ffffff" stroke-width="10" stroke-opacity="1" stroke-miterlimit="10"/></g><path fill="#ff5757" d="M 260.023438 207.085938 C 260.023438 207.085938 260.40625 160.109375 318.9375 156.019531 C 321.359375 155.847656 322.632812 157.625 321.398438 159.417969 C 320.65625 160.492188 319.207031 161.257812 317.761719 161.324219 C 307.609375 161.796875 267.824219 166.269531 260.023438 207.085938 " fill-opacity="1" fill-rule="nonzero"/><path stroke-linecap="butt" transform="matrix(0.0331579, 0, 0, -0.0331579, 42.896651, 367.710621)" fill="none" stroke-linejoin="miter" d="M 6548.273076 4844.24014 C 6548.273076 4844.24014 6559.818224 6260.994677 8325.047725 6384.339264 C 8398.088454 6389.522799 8436.493741 6335.920328 8399.26653 6281.846627 C 8376.883081 6249.449529 8333.176451 6226.359234 8289.587628 6224.356504 C 7983.405603 6210.101781 6783.53491 6075.212047 6548.273076 4844.24014 Z M 6548.273076 4844.24014 " stroke="#ffffff" stroke-width="10" stroke-opacity="1" stroke-miterlimit="10"/><path fill="#f9a72b" d="M 114.804688 78.691406 C 123.667969 84.199219 126.910156 95.871094 125.933594 106.277344 C 124.957031 116.683594 120.621094 126.421875 117.539062 136.40625 C 114.457031 146.390625 112.664062 157.464844 116.695312 167.105469 C 120.101562 175.25 127.445312 181.820312 128.519531 190.589844 C 129.496094 198.582031 124.9375 206.445312 125.726562 214.457031 C 126.683594 224.109375 135.171875 231.378906 144.0625 235.207031 C 152.953125 239.035156 162.734375 240.519531 171.511719 244.601562 C 180.285156 248.6875 188.414062 256.554688 188.535156 266.257812 C 184.175781 255.316406 172.789062 248.839844 161.53125 245.453125 C 150.277344 242.070312 138.339844 240.882812 127.550781 236.214844 C 116.761719 231.546875 106.828125 222.054688 106.453125 210.28125 C 106.246094 203.792969 108.949219 197.351562 107.949219 190.941406 C 106.351562 180.664062 96.105469 174.171875 91.402344 164.898438 C 86.253906 154.753906 88.308594 142.457031 91.972656 131.679688 C 95.640625 120.90625 100.835938 110.433594 101.753906 99.085938 C 103.335938 79.597656 90.394531 59.847656 71.925781 53.5625 C 111.976562 46.210938 155.351562 60.738281 182.949219 90.753906 C 203.746094 113.371094 215.324219 143.335938 220.148438 173.710938 C 223.089844 192.25 223.671875 211.027344 223.085938 229.816406 C 222.503906 225.289062 216.976562 201.664062 214.789062 194.378906 C 208.1875 172.359375 201.429688 150 188.925781 130.722656 C 172.074219 104.738281 144.921875 85.679688 114.804688 78.691406 " fill-opacity="1" fill-rule="nonzero"/><path stroke-linecap="butt" transform="matrix(0.0330846, 0.000000000000000001, 0.000000000000000001, -0.033168, 42.896651, 374.992826)" fill="none" stroke-linejoin="miter" d="M 2173.457156 8933.343937 C 2441.354362 8767.286064 2539.351137 8415.3847 2509.834036 8101.641315 C 2480.316935 7787.89793 2349.261008 7494.293478 2256.105038 7193.26942 C 2162.949068 6892.245361 2108.755671 6558.363042 2230.602263 6267.70288 C 2333.55791 6022.149217 2555.526508 5824.057485 2587.995319 5559.660376 C 2617.51242 5318.699803 2479.726593 5081.625691 2503.576411 4840.076261 C 2532.50317 4549.062783 2789.06581 4329.889945 3057.789496 4214.473835 C 3326.513181 4099.057725 3622.156463 4054.30454 3887.456165 3931.233279 C 4152.637798 3808.044248 4398.338146 3570.852364 4401.998266 3278.307857 C 4270.233928 3608.185943 3926.064533 3803.451157 3585.791395 3905.559083 C 3245.636325 4007.549238 2884.819285 4043.351786 2558.714355 4184.088778 C 2232.609426 4324.825769 1932.361476 4611.010613 1921.026909 4965.974038 C 1914.769284 5161.592567 1996.472619 5355.797838 1966.247108 5549.060937 C 1917.957131 5858.917861 1608.263709 6054.654162 1466.109352 6334.2438 C 1310.495196 6640.096492 1372.599177 7010.841303 1483.347339 7335.772984 C 1594.213569 7660.586894 1751.244546 7976.450167 1778.99062 8318.458721 C 1826.808324 8906.138711 1435.647704 9501.47385 877.420294 9690.968259 C 2087.975632 9912.614299 3399.007181 9474.621939 4233.160449 8569.665418 C 4861.756628 7887.768196 5211.711375 6984.342706 5357.525853 6068.551204 C 5446.431361 5509.607471 5464.023553 4943.479673 5446.313292 4376.998562 C 5428.7211 4513.495778 5261.65431 5225.778057 5195.536004 5445.421981 C 4996.000403 6109.300157 4791.742065 6783.424457 4413.805106 7364.627012 C 3904.458015 8148.043302 3083.764544 8722.65065 2173.457156 8933.343937 Z M 2173.457156 8933.343937 " stroke="#ffffff" stroke-width="10" stroke-opacity="1" stroke-miterlimit="10"/><g clip-path="url(#185de7a65a)"><path fill="#f9a72b" d="M 65.980469 329.703125 C 67.84375 312.371094 67.597656 294.050781 76.019531 278.800781 C 85.792969 261.117188 106.351562 250.898438 126.519531 250.820312 C 146.6875 250.746094 166.171875 259.789062 181.472656 272.964844 L 183.664062 275.445312 C 175.78125 268.488281 166.253906 263.394531 156.054688 260.851562 C 140.605469 256.996094 123.761719 259.039062 109.667969 266.472656 C 101.710938 270.671875 94.453125 276.753906 90.464844 284.832031 C 84.863281 296.183594 86.398438 309.558594 86.964844 322.210938 C 87.53125 334.859375 86.398438 348.960938 77.257812 357.695312 C 102.96875 359.746094 129.378906 348.828125 146.175781 329.207031 C 158.597656 314.699219 165.574219 296.421875 172.320312 278.539062 C 172.050781 307.964844 156.375 336.820312 131.863281 353.007812 C 106.261719 369.910156 74.171875 372.589844 43.59375 374.777344 C 58.605469 365.984375 64.117188 347.035156 65.980469 329.703125 " fill-opacity="1" fill-rule="nonzero"/></g><g clip-path="url(#5b4377f187)"><path stroke-linecap="butt" transform="matrix(0.0330846, 0.000000000000000001, 0.000000000000000001, -0.033168, 42.896651, 374.992857)" fill="none" stroke-linejoin="miter" d="M 697.720184 1365.463281 C 754.038812 1888.015552 746.600503 2440.364019 1001.15598 2900.144065 C 1296.563125 3433.295772 1917.957131 3741.38609 2527.544297 3743.741521 C 3137.131462 3745.97918 3726.056658 3473.338092 4188.530593 3076.094728 L 4254.766967 3001.309807 C 4016.50493 3211.060899 3728.536094 3364.634971 3420.259493 3441.304236 C 2953.298959 3557.544735 2444.188004 3495.950225 2018.197205 3271.831007 C 1777.691868 3145.226615 1558.320775 2961.856345 1437.772935 2718.304825 C 1268.462845 2376.060764 1314.863727 1972.811052 1331.983646 1591.349072 C 1349.103564 1210.004864 1314.863727 784.849648 1038.583664 521.512511 C 1815.709894 459.682459 2613.970368 788.85388 3121.664502 1380.420266 C 3497.122024 1817.823721 3707.992192 2368.876701 3911.896324 2908.034757 C 3903.749605 2020.861836 3429.941102 1150.883557 2689.061872 662.838345 C 1915.241558 153.240942 945.309625 72.449674 21.070165 6.497618 C 474.807039 271.601328 641.401556 842.911011 697.720184 1365.463281 Z M 697.720184 1365.463281 " stroke="#ffffff" stroke-width="10" stroke-opacity="1" stroke-miterlimit="10"/></g><g clip-path="url(#1931faae9f)"><path fill="#f9a72b" d="M 234.433594 125.308594 C 229.402344 86.882812 212.152344 66.351562 187.363281 47.835938 C 193.0625 56.128906 191.6875 67.570312 187.054688 76.566406 C 186.679688 76.152344 186.308594 75.730469 185.929688 75.316406 C 180.542969 69.460938 174.554688 64.195312 168.109375 59.5625 C 176.222656 42.542969 172.074219 20.328125 158.140625 7.570312 C 197.773438 16.945312 231.6875 47.699219 244.957031 86.292969 C 254.953125 115.375 253.566406 147.480469 245.828125 177.246094 C 241.101562 195.410156 234.121094 212.84375 226.066406 229.816406 C 227.34375 225.4375 231.734375 201.574219 232.648438 194.019531 C 235.414062 171.191406 237.421875 148.105469 234.433594 125.308594 " fill-opacity="1" fill-rule="nonzero"/></g><g clip-path="url(#f65a42f7bd)"><path stroke-linecap="butt" transform="matrix(0.0330846, 0.000000000000000001, 0.000000000000000001, -0.033168, 42.896651, 374.992826)" fill="none" stroke-linejoin="miter" d="M 5789.302004 7527.858367 C 5637.2299 8686.377015 5115.839832 9305.384234 4366.577745 9863.621338 C 4538.839545 9613.592357 4497.279467 9268.639513 4357.250341 8997.411655 C 4345.915775 9009.895438 4334.699276 9022.614765 4323.246641 9035.098548 C 4160.430313 9211.638088 3979.431451 9370.394125 3784.618586 9510.071172 C 4029.846659 10023.201776 3904.458015 10692.968529 3483.308021 11077.610382 C 4681.23004 10794.958684 5706.299916 9867.743342 6107.378282 8704.160518 C 6409.515326 7827.351396 6367.601043 6859.387101 6133.707536 5961.967959 C 5990.844768 5414.330294 5779.856531 4888.715907 5536.399484 4376.998562 C 5575.007852 4509.020459 5707.716737 5228.486802 5735.344743 5456.256963 C 5818.937173 6144.513848 5879.624332 6840.543655 5789.302004 7527.858367 Z M 5789.302004 7527.858367 " stroke="#ffffff" stroke-width="10" stroke-opacity="1" stroke-miterlimit="10"/></g><path fill="#f9a72b" d="M 253.890625 208.300781 C 253.890625 208.300781 253.917969 208.429688 253.972656 208.6875 C 254.03125 208.941406 254.113281 209.324219 254.191406 209.824219 C 254.355469 210.820312 254.570312 212.296875 254.6875 214.179688 C 254.828125 216.070312 254.878906 218.367188 254.773438 221.003906 C 254.695312 223.648438 254.382812 226.613281 253.898438 229.84375 C 253.628906 231.453125 253.34375 233.136719 252.9375 234.851562 C 252.574219 236.585938 252.085938 238.339844 251.574219 240.152344 C 250.488281 243.753906 249.175781 247.523438 247.449219 251.273438 C 246.640625 253.179688 245.648438 255.03125 244.675781 256.925781 C 244.195312 257.878906 243.621094 258.78125 243.089844 259.722656 C 242.535156 260.644531 242.011719 261.597656 241.40625 262.5 C 240.800781 263.40625 240.195312 264.316406 239.589844 265.226562 C 238.996094 266.152344 238.328125 267.027344 237.664062 267.90625 C 236.996094 268.78125 236.328125 269.664062 235.660156 270.542969 L 233.515625 273.074219 C 230.644531 276.441406 227.460938 279.53125 224.207031 282.398438 C 222.574219 283.832031 220.851562 285.125 219.191406 286.445312 C 217.484375 287.703125 215.742188 288.867188 214.046875 290.023438 C 213.203125 290.609375 212.300781 291.089844 211.441406 291.613281 C 210.578125 292.128906 209.71875 292.632812 208.863281 293.121094 C 208.023438 293.632812 207.148438 294.070312 206.285156 294.492188 C 205.425781 294.917969 204.578125 295.339844 203.738281 295.753906 C 202.894531 296.152344 202.089844 296.59375 201.242188 296.925781 C 200.40625 297.269531 199.582031 297.609375 198.769531 297.945312 C 197.957031 298.265625 197.160156 298.585938 196.375 298.898438 C 195.984375 299.050781 195.59375 299.203125 195.210938 299.351562 C 194.816406 299.476562 194.425781 299.605469 194.042969 299.730469 C 192.492188 300.21875 191.027344 300.703125 189.621094 301.125 C 188.222656 301.566406 186.855469 301.867188 185.578125 302.160156 C 183.023438 302.734375 180.820312 303.246094 178.941406 303.453125 C 175.226562 303.972656 173.089844 304.101562 173.089844 304.101562 C 173.089844 304.101562 174.875 302.839844 178.011719 300.917969 C 179.589844 299.992188 181.4375 298.71875 183.570312 297.371094 C 185.726562 296.074219 188.039062 294.417969 190.589844 292.75 C 190.910156 292.539062 191.230469 292.328125 191.554688 292.113281 C 191.871094 291.886719 192.191406 291.65625 192.511719 291.421875 C 193.15625 290.964844 193.808594 290.496094 194.476562 290.019531 C 195.144531 289.550781 195.824219 289.074219 196.511719 288.59375 C 197.207031 288.121094 197.863281 287.570312 198.554688 287.054688 C 199.238281 286.539062 199.933594 286.015625 200.640625 285.480469 C 201.34375 284.953125 202.066406 284.4375 202.75 283.851562 C 204.125 282.695312 205.578125 281.585938 206.996094 280.390625 C 208.375 279.152344 209.824219 277.957031 211.234375 276.6875 C 211.921875 276.039062 212.617188 275.386719 213.316406 274.730469 C 213.667969 274.40625 214.019531 274.082031 214.375 273.757812 L 214.902344 273.269531 L 215.40625 272.75 C 218.136719 270.03125 220.863281 267.238281 223.386719 264.265625 L 225.300781 262.054688 C 225.90625 261.292969 226.511719 260.53125 227.117188 259.773438 C 228.367188 258.28125 229.46875 256.691406 230.640625 255.164062 C 231.234375 254.40625 231.738281 253.589844 232.296875 252.816406 C 232.832031 252.027344 233.417969 251.269531 233.914062 250.464844 C 234.9375 248.878906 235.996094 247.328125 236.929688 245.734375 C 238.898438 242.605469 240.605469 239.445312 242.222656 236.417969 C 243.804688 233.375 245.210938 230.425781 246.476562 227.660156 C 247.703125 224.882812 248.824219 222.296875 249.726562 219.957031 C 250.21875 218.796875 250.585938 217.683594 251 216.664062 C 251.375 215.632812 251.722656 214.679688 252.03125 213.824219 C 252.648438 212.097656 253.105469 210.71875 253.417969 209.769531 C 253.730469 208.820312 253.890625 208.300781 253.890625 208.300781 " fill-opacity="1" fill-rule="nonzero"/><path stroke-linecap="butt" transform="matrix(0.0330846, 0.000000000000000001, 0.000000000000000001, -0.033168, 42.896651, 374.992826)" fill="none" stroke-linejoin="miter" d="M 6377.40072 5025.684209 C 6377.40072 5025.684209 6378.227199 5021.797748 6379.880157 5014.024826 C 6381.651183 5006.369676 6384.130619 4994.828065 6386.491987 4979.753308 C 6391.45086 4949.721565 6397.944622 4905.203923 6401.486674 4848.43804 C 6405.737137 4791.436614 6407.272026 4722.186948 6404.084179 4642.691158 C 6401.722811 4562.959825 6392.277339 4473.571225 6377.636857 4376.174161 C 6369.490137 4327.652286 6360.871144 4276.892752 6348.59203 4225.191045 C 6337.611668 4172.900481 6322.853118 4120.021059 6307.386157 4065.375064 C 6274.563141 3956.789704 6234.892157 3843.140167 6182.705923 3730.079487 C 6158.265764 3672.606976 6128.276389 3616.783265 6098.877357 3559.664068 C 6084.354943 3530.927812 6066.998888 3503.722586 6050.941585 3475.339644 C 6034.175872 3447.545561 6018.354706 3418.809305 6000.054103 3391.604079 C 5981.753501 3364.281081 5963.452898 3336.840312 5945.152296 3309.399543 C 5927.205899 3281.487688 5907.016202 3255.106863 5886.944573 3228.608266 C 5866.754876 3202.227441 5846.565179 3175.611073 5826.375482 3149.112476 L 5761.555929 3072.796518 C 5674.775653 2971.277449 5578.549904 2878.120161 5480.198924 2791.675849 C 5430.846332 2748.453694 5378.778166 2709.471314 5328.599094 2669.664533 C 5277.003202 2631.742097 5224.344694 2596.646178 5173.103007 2561.785802 C 5147.600232 2544.12007 5120.326431 2529.634171 5094.351382 2513.852784 C 5068.258265 2498.306941 5042.283217 2483.114412 5016.426236 2468.39297 C 4991.04153 2452.964898 4964.594207 2439.774485 4938.50109 2427.055159 C 4912.526042 2414.218061 4886.905198 2401.498734 4861.520491 2389.014951 C 4836.017716 2377.002254 4811.695625 2363.69407 4786.074782 2353.683489 C 4760.808143 2343.319593 4735.89571 2333.073469 4711.337482 2322.945117 C 4686.779255 2313.28785 4662.6933 2303.630584 4638.961551 2294.208861 C 4627.154711 2289.615771 4615.347871 2285.02268 4603.777167 2280.547362 C 4591.852258 2276.778673 4580.045418 2272.892212 4568.474715 2269.123522 C 4521.601558 2254.40208 4477.325907 2239.798409 4434.821282 2227.079082 C 4392.552794 2213.770898 4351.228853 2204.70249 4312.620485 2195.869624 C 4235.403749 2178.557207 4168.81317 2163.246907 4112.022268 2156.887244 C 3999.739216 2141.223629 3935.1558 2137.337168 3935.1558 2137.337168 C 3935.1558 2137.337168 3989.11306 2175.377376 4083.921988 2233.320974 C 4131.621623 2261.232829 4187.467977 2299.626352 4251.933326 2340.257533 C 4317.107084 2379.357685 4387.003579 2429.292818 4464.102246 2479.581266 C 4473.783855 2485.940929 4483.465464 2492.300592 4493.265142 2498.778027 C 4502.828682 2505.608777 4512.510291 2512.557298 4522.191901 2519.62359 C 4541.673187 2533.40286 4561.39061 2547.535445 4581.580307 2561.903573 C 4601.770004 2576.036158 4622.313906 2590.404286 4643.093945 2604.890186 C 4664.110121 2619.140542 4683.945613 2635.746329 4704.84372 2651.292173 C 4725.505691 2666.838016 4746.521867 2682.619403 4767.892248 2698.754104 C 4789.14456 2714.653262 4810.987215 2730.199105 4831.649185 2747.864836 C 4873.209263 2782.725212 4917.130709 2816.17233 4959.98954 2852.210422 C 5001.667686 2889.544 5045.471064 2925.582091 5088.093757 2963.857842 C 5108.873796 2983.407918 5129.889972 3003.075765 5151.024216 3022.861384 C 5161.650372 3032.636422 5172.276529 3042.41146 5183.020753 3052.186498 L 5198.959988 3066.907941 L 5214.190812 3082.571556 C 5296.720626 3164.540548 5379.132371 3248.7472 5455.404559 3338.371342 L 5513.258077 3405.030035 C 5531.55868 3427.995485 5549.859282 3450.960936 5568.159885 3473.808614 C 5605.941774 3518.797343 5639.237063 3566.73036 5674.657584 3612.779033 C 5692.603981 3635.626712 5707.834805 3660.240964 5724.718587 3683.6775 C 5740.893958 3707.34958 5758.604219 3730.197259 5773.598906 3754.458196 C 5804.532828 3802.273442 5836.529365 3849.028744 5864.747713 3897.079532 C 5924.254189 3991.414537 5975.850081 4086.691713 6024.7304 4177.964658 C 6072.548103 4269.708688 6115.052728 4358.626201 6153.306891 4442.008452 C 6190.380369 4525.744018 6224.266001 4603.708778 6251.539802 4674.253931 C 6266.416421 4709.232079 6277.514851 4742.796968 6290.030102 4773.53534 C 6301.364668 4804.627027 6311.872756 4833.363283 6321.20016 4859.15525 C 6339.854968 4911.210271 6353.668971 4952.783625 6363.114443 4981.40211 C 6372.559916 5010.020594 6377.40072 5025.684209 6377.40072 5025.684209 Z M 6377.40072 5025.684209 " stroke="#ffffff" stroke-width="10" stroke-opacity="1" stroke-miterlimit="10"/><path fill="#f9a72b" d="M 259.433594 222.492188 C 259.433594 222.492188 270.40625 176.804688 328.222656 186.066406 C 330.613281 186.449219 331.449219 188.464844 329.84375 189.933594 C 328.882812 190.816406 327.296875 191.230469 325.878906 190.96875 C 315.90625 189.132812 276.230469 184.484375 259.433594 222.492188 " fill-opacity="1" fill-rule="nonzero"/><g clip-path="url(#5f00f7fa76)"><path stroke-linecap="butt" transform="matrix(0.0330846, 0.000000000000000001, 0.000000000000000001, -0.033168, 42.896651, 374.992857)" fill="none" stroke-linejoin="miter" d="M 6544.939784 4597.820643 C 6544.939784 4597.820643 6876.593929 5975.276436 8624.124365 5696.040142 C 8696.382227 5684.498533 8721.648866 5623.728424 8673.122752 5579.446329 C 8644.077925 5552.829964 8596.142153 5540.346182 8553.283323 5548.236875 C 8251.854689 5603.589493 7052.633918 5743.737611 6544.939784 4597.820643 Z M 6544.939784 4597.820643 " stroke="#ffffff" stroke-width="10" stroke-opacity="1" stroke-miterlimit="10"/></g><path fill="#f9a72b" d="M 259.542969 214.320312 C 259.542969 214.320312 259.925781 167.328125 318.328125 163.234375 C 320.746094 163.066406 322.015625 164.839844 320.78125 166.636719 C 320.042969 167.710938 318.59375 168.476562 317.152344 168.542969 C 307.027344 169.015625 267.328125 173.488281 259.542969 214.320312 " fill-opacity="1" fill-rule="nonzero"/><path stroke-linecap="butt" transform="matrix(0.0330846, 0.000000000000000001, 0.000000000000000001, -0.033168, 42.896651, 374.992826)" fill="none" stroke-linejoin="miter" d="M 6548.2457 4844.198264 C 6548.2457 4844.198264 6559.816403 6260.989902 8325.057099 6384.414477 C 8398.141441 6389.478653 8436.513672 6336.010373 8399.204057 6281.835464 C 8376.889128 6249.448291 8333.085751 6226.365069 8289.51851 6224.362952 C 7983.485209 6210.112596 6783.556027 6075.264182 6548.2457 4844.198264 Z M 6548.2457 4844.198264 " stroke="#ffffff" stroke-width="10" stroke-opacity="1" stroke-miterlimit="10"/></svg>